<?xml version="1.0" encoding="UTF-8" standalone="no"?>
<!-- Created with Inkscape (http://www.inkscape.org/) -->

<svg
   width="91.80706mm"
   height="20.988558mm"
   viewBox="0 0 91.80706 20.988557"
   version="1.1"
   id="svg5"
   inkscape:version="1.1 (c68e22c387, 2021-05-23)"
   sodipodi:docname="logo.svg"
   xmlns:inkscape="http://www.inkscape.org/namespaces/inkscape"
   xmlns:sodipodi="http://sodipodi.sourceforge.net/DTD/sodipodi-0.dtd"
   xmlns="http://www.w3.org/2000/svg"
   xmlns:svg="http://www.w3.org/2000/svg">
  <sodipodi:namedview
     id="namedview7"
     pagecolor="#505050"
     bordercolor="#eeeeee"
     borderopacity="1"
     inkscape:pageshadow="0"
     inkscape:pageopacity="0"
     inkscape:pagecheckerboard="0"
     inkscape:document-units="mm"
     showgrid="false"
     inkscape:zoom="2.8284271"
     inkscape:cx="162.98811"
     inkscape:cy="73.362328"
     inkscape:window-width="1920"
     inkscape:window-height="1009"
     inkscape:window-x="1912"
     inkscape:window-y="-8"
     inkscape:window-maximized="1"
     inkscape:current-layer="layer1"
     showguides="true"
     inkscape:guide-bbox="true" />
  <defs
     id="defs2">
    <inkscape:path-effect
       effect="fillet_chamfer"
       id="path-effect4667"
       is_visible="true"
       lpeversion="1"
       satellites_param="C,0,0,1,0,2.38125,0,1 @ C,0,0,1,0,2.38125,0,1 @ C,0,0,1,0,2.38125,0,1 @ C,0,0,1,0,2.38125,0,1"
       unit="px"
       method="auto"
       mode="C"
       radius="9"
       chamfer_steps="1"
       flexible="false"
       use_knot_distance="true"
       apply_no_radius="true"
       apply_with_radius="true"
       only_selected="false"
       hide_knots="false" />
    <inkscape:path-effect
       effect="fillet_chamfer"
       id="path-effect2566"
       is_visible="true"
       lpeversion="1"
       satellites_param="C,0,0,1,1,2.1166667,0,1 @ C,0,0,1,1,2.1166667,0,1 @ C,0,0,1,1,2.1166667,0,1 @ C,0,0,1,1,2.1166667,0,1"
       unit="px"
       method="auto"
       mode="F"
       radius="8"
       chamfer_steps="1"
       flexible="false"
       use_knot_distance="true"
       apply_no_radius="true"
       apply_with_radius="true"
       only_selected="false"
       hide_knots="true" />
    <inkscape:path-effect
       effect="fillet_chamfer"
       id="path-effect2475"
       is_visible="true"
       lpeversion="1"
       satellites_param="C,0,0,1,1,2.1166667,0,1 @ C,0,0,1,1,2.1166667,0,1 @ C,0,0,1,1,2.1166667,0,1 @ C,0,0,1,1,2.1166667,0,1"
       unit="px"
       method="auto"
       mode="C"
       radius="8"
       chamfer_steps="1"
       flexible="false"
       use_knot_distance="true"
       apply_no_radius="true"
       apply_with_radius="true"
       only_selected="false"
       hide_knots="true" />
  </defs>
  <g
     inkscape:label="Layer 1"
     inkscape:groupmode="layer"
     id="layer1"
     transform="translate(-39.37742,-93.636616)">
    <text
       xml:space="preserve"
       style="font-style:normal;font-variant:normal;font-weight:normal;font-stretch:normal;font-size:10.5833px;line-height:1.25;font-family:'Black Ops One';-inkscape-font-specification:'Black Ops One';fill:#ffffff;fill-opacity:1;stroke:none;stroke-width:0.264583"
       x="63.436893"
       y="101.39605"
       id="text2102"><tspan
         sodipodi:role="line"
         style="font-style:normal;font-variant:normal;font-weight:normal;font-stretch:normal;font-family:'Black Ops One';-inkscape-font-specification:'Black Ops One';fill:#ffffff;fill-opacity:1;stroke-width:0.264583"
         x="63.436893"
         y="101.39605"
         id="tspan4588">Adeptus</tspan><tspan
         sodipodi:role="line"
         style="font-style:normal;font-variant:normal;font-weight:normal;font-stretch:normal;font-family:'Black Ops One';-inkscape-font-specification:'Black Ops One';fill:#ffffff;fill-opacity:1;stroke-width:0.264583"
         x="63.436893"
         y="114.62518"
         id="tspan7470">Mechanicus</tspan></text>
    <g
       id="g2833"
       inkscape:transform-center-x="-5.6705626"
       inkscape:transform-center-y="2.0186248"
       inkscape:tile-cx="23.215325"
       inkscape:tile-cy="98.634105"
       inkscape:tile-w="7.8088249"
       inkscape:tile-h="6.2502624"
       inkscape:tile-x0="31.892625"
       inkscape:tile-y0="99.624924"
       transform="matrix(0.73139608,0,0,0.73139608,20.980751,28.052087)">
      <g
         id="path3909"
         inkscape:transform-center-x="0.046771431"
         inkscape:transform-center-y="0.28063288">
        <path
           id="use8476"
           style="color:#000000;fill:#ffffff;stroke-width:1;stroke-linejoin:round;-inkscape-stroke:none"
           inkscape:transform-center-x="-12.488169"
           inkscape:transform-center-y="3.367596"
           d="m 40.855213,96.606345 -1.118277,-5.127334 c -0.232377,-0.0072 -0.471939,-0.0016 -0.68678,0.0031 l -1.964738,-1.81178 c -0.09842,0.01635 -0.196561,0.03333 -0.294556,0.05168 l -1.359607,5.073076 1.82883,2.00918 c 0.708779,-0.21734 1.448533,-0.329179 2.196248,-0.329179 0.4712,0 0.939601,0.04421 1.39888,0.131257 z m 0.972034,-6.93601 -1.842264,1.699123 0.509529,2.335773 3.50108,-3.501594 c -0.707771,-0.233058 -1.432505,-0.411509 -2.168345,-0.533302 z m -5.325256,0.109554 c -0.729476,0.15205 -1.446419,0.35974 -2.144572,0.622186 l -0.746207,2.392619 1.609204,1.768367 z m 7.772652,0.518316 -3.713467,3.713467 0.578776,2.65462 c 0.72249,0.166169 1.419,0.439012 2.066539,0.812868 0.408072,0.235601 0.791442,0.508363 1.145667,0.813388 l 1.595252,-4.999694 c -0.191995,-0.119869 -0.407072,-0.237167 -0.595842,-0.341066 l -0.795819,-2.551264 c -0.0934,-0.03506 -0.187079,-0.06921 -0.28112,-0.102319 z m 4.387328,2.473232 -2.44481,0.550355 -0.72657,2.277898 4.782653,-1.282094 c -0.496419,-0.555718 -1.034912,-1.072761 -1.611273,-1.546159 z m -18.411278,0.0016 c -0.07706,0.06336 -0.153235,0.127349 -0.228926,0.192238 l 1.35909,5.072557 2.588472,0.826307 c 0.505151,-0.54261 1.089305,-1.00952 1.736845,-1.383379 0.408071,-0.235598 0.83617,-0.431755 1.277442,-0.58601 l -3.532085,-3.880937 c -0.204926,0.109707 -0.409566,0.234325 -0.593245,0.345715 z m -0.450618,0.38654 c -0.555719,0.496419 -1.072763,1.034912 -1.546159,1.61127 l 0.550354,2.444814 2.277897,0.726569 z m 20.667471,1.37976 -5.072557,1.35909 -0.826307,2.588475 c 0.54261,0.50515 1.00952,1.089302 1.383379,1.736838 0.235598,0.40808 0.431239,0.83617 0.585494,1.27744 l 3.881416,-3.532076 c -0.109704,-0.204928 -0.234325,-0.409567 -0.345715,-0.593246 l 0.586529,-2.607593 c -0.06336,-0.07706 -0.127352,-0.153236 -0.192239,-0.228928 z m -21.692215,2.946074 c -0.122373,0.197544 -0.23753,0.407723 -0.341064,0.595829 l -2.551266,0.795819 c -0.03506,0.0934 -0.06921,0.187079 -0.102319,0.28112 l 3.713468,3.713461 2.654619,-0.57877 c 0.166169,-0.72249 0.439013,-1.419 0.81287,-2.06654 0.2356,-0.408072 0.508362,-0.791442 0.813387,-1.145666 z m 21.862747,0.643372 -1.768366,1.609203 4.783171,1.281574 c -0.152053,-0.72947 -0.35974,-1.446417 -0.622186,-2.14457 z m -24.951964,1.308446 c -0.233058,0.707771 -0.411508,1.432501 -0.533301,2.168341 l 1.699121,1.84227 2.335775,-0.50953 z m 21.14031,5.935551 5.127337,-1.11827 c 0.0072,-0.23238 0.0016,-0.47195 -0.0031,-0.68679 l 1.811777,-1.96473 c -0.01635,-0.0984 -0.03384,-0.19656 -0.05219,-0.29456 l -5.072555,-1.359602 -2.009698,1.828822 c 0.217339,0.70878 0.329695,1.44854 0.329697,2.19625 0,0.4712 -0.04421,0.9396 -0.13126,1.39888 z m -14.7376,-2.79518 -5.127336,1.11828 c -0.0072,0.23238 -0.0016,0.47194 0.0031,0.68678 l -1.811775,1.96474 c 0.01634,0.0984 0.03384,0.19657 0.05219,0.29456 l 5.072559,1.35909 2.009179,-1.82831 c -0.217338,-0.70879 -0.329178,-1.44854 -0.329179,-2.19625 0,-0.4712 0.04421,-0.9396 0.131259,-1.39889 z m 19.97449,1.92495 -2.335773,0.50953 3.501594,3.50108 c 0.233058,-0.70777 0.411509,-1.4325 0.533302,-2.16834 z m -2.642216,0.57619 -2.654618,0.57878 c -0.166168,0.72249 -0.439012,1.419 -0.812868,2.06654 -0.235601,0.40807 -0.508363,0.79144 -0.813388,1.14567 l 4.999694,1.59525 c 0.119557,-0.1928 0.236871,-0.40614 0.341077,-0.59582 l 2.551266,-0.79582 c 0.03506,-0.0934 0.06921,-0.18708 0.10232,-0.28112 z m -17.043919,1.37046 -3.880901,3.53209 c 0.109713,0.20492 0.234328,0.40957 0.345716,0.59324 l -0.586528,2.60759 c 0.06336,0.0771 0.127349,0.15324 0.192237,0.22893 l 5.072558,-1.35909 0.826306,-2.58847 c -0.54261,-0.50515 -1.009521,-1.08982 -1.383378,-1.73736 -0.2356,-0.40807 -0.431755,-0.83566 -0.58601,-1.27693 z m -7.114812,0.48163 c 0.152051,0.72948 0.35974,1.44642 0.622185,2.14457 l 2.392618,0.74621 1.768368,-1.60921 z m 19.683553,2.15542 c -0.505151,0.54261 -1.089306,1.00952 -1.736844,1.38338 -0.408073,0.2356 -0.836171,0.43124 -1.277443,0.58549 l 3.532084,3.88142 c 0.204928,-0.10971 0.409562,-0.23433 0.593246,-0.34572 l 2.607593,0.58653 c 0.07706,-0.0634 0.153236,-0.12734 0.228926,-0.19223 l -1.359088,-5.07256 z m -10.382829,0.57154 -1.595251,4.9997 c 0.192805,0.11954 0.406126,0.23686 0.595817,0.34108 l 0.795817,2.55126 c 0.0934,0.0351 0.18708,0.0692 0.28112,0.10232 l 3.713468,-3.71347 -0.578776,-2.65462 c -0.72249,-0.16617 -1.419,-0.43901 -2.066541,-0.81287 -0.40807,-0.2356 -0.791442,-0.50836 -1.145666,-0.81338 z m 13.269991,0.34985 1.282091,4.78317 c 0.555721,-0.49642 1.072764,-1.03491 1.546159,-1.61127 l -0.550352,-2.44481 z m -7.967989,6.46059 1.964739,1.81126 c 0.09842,-0.0163 0.196559,-0.0338 0.294555,-0.0522 l 1.359091,-5.07205 -1.828314,-2.00969 c -0.708779,0.21734 -1.448533,0.32969 -2.196247,0.32969 -0.4712,0 -0.939601,-0.0442 -1.398881,-0.13125 l 1.118278,5.12733 c 0.232378,0.007 0.471967,0.002 0.686779,-0.003 z m -6.440433,-4.11758 -4.782654,1.28209 c 0.496417,0.55572 1.034911,1.07226 1.611271,1.54564 l 2.444812,-0.55035 z m 10.270175,1.03663 -1.281576,4.78317 c 0.729475,-0.15205 1.446419,-0.35974 2.144572,-0.62218 l 0.746207,-2.39262 z m -5.274098,0.85783 -3.501078,3.5016 c 0.70777,0.23304 1.432503,0.41151 2.168343,0.5333 l 1.842265,-1.69912 z"
           sodipodi:nodetypes="cccccccccccccccccccccsccccccccccccccsccsccccscccscccscccsccccsccccccccccccccccccccscccccccccccccccsccccccccccccccccccccccccccccccccccccccccccccccccccccccccccccccccccccccccccc" />
      </g>
    </g>
  </g>
</svg>
